# xmcd CD database file
#
# Track frame offsets:
#	150
#	15077
#	34045
#	48990
#
# Disc length: 902 seconds
#
# Revision: 0
# Processed by: cddbd v1.5.1PL2 Copyright (c) Steve Scherf et al.
# Submitted via: CDex 1.51
#
DISCID=1f038404
DTITLE=Boxer Kid From MJR - 音速 Big Wave
DYEAR=2006
DGENRE=General Reggae
TTITLE0=音速 Big Wave
TTITLE1=Perfect Family
TTITLE2=音速 BIG Wave (Version)
TTITLE3=Perfect Family (Version)
EXTD=YEAR: 2006
EXTT0=
EXTT1=
EXTT2=
EXTT3=
PLAYORDER=
